<svg version="1.1" id="Layer_1" xmlns="http://www.w3.org/2000/svg" xmlns:xlink="http://www.w3.org/1999/xlink" x="0px" y="0px"
	 width="100%" viewBox="0 0 512 512" enable-background="new 0 0 512 512" xml:space="preserve">
<path fill="#000000" opacity="1.000000" stroke="none" 
	d="
M289.000000,0.999999 
	C363.593719,1.000000 438.187408,1.000000 513.000000,1.000000 
	C513.000000,75.354088 513.000000,149.708389 512.633667,224.837921 
	C511.178223,219.970337 510.407532,214.242966 508.936401,208.701523 
	C505.410614,195.420929 501.555542,182.227737 497.910400,168.621887 
	C497.324036,166.636154 496.759125,164.978424 495.981598,163.427292 
	C489.714722,150.925415 483.407867,138.443619 477.058594,125.592773 
	C468.865692,111.040367 459.064636,98.074150 447.985413,85.641518 
	C440.578064,78.237717 433.494720,70.927910 425.947449,64.133392 
	C420.639709,59.354992 414.700806,55.277657 408.924866,50.576775 
	C407.551239,49.472580 406.296448,48.678890 404.920380,47.570267 
	C404.044952,46.892521 403.290741,46.529713 402.320862,45.918694 
	C384.698090,32.828953 365.436768,23.462244 345.238220,16.065083 
	C327.523895,9.577697 309.404816,4.449428 290.456177,2.903672 
	C289.922577,2.860142 289.483276,1.660537 289.000000,0.999999 
z"/>
<path fill="#000000" opacity="1.000000" stroke="none" 
	d="
M513.000000,289.000000 
	C513.000000,363.593719 513.000000,438.187408 513.000000,513.000000 
	C438.645905,513.000000 364.291626,513.000000 289.163025,512.633240 
	C289.061066,511.850952 289.690582,511.181152 290.412384,511.059723 
	C296.792816,509.985931 303.236145,509.240631 309.573486,507.964172 
	C336.333099,502.574432 361.660675,493.373230 385.406616,479.065063 
	C387.266968,478.109802 388.845703,477.315887 390.245178,476.279816 
	C402.827454,466.964386 415.378265,457.606476 428.161011,448.159363 
	C435.632263,440.724731 442.880829,433.391754 450.456207,425.917786 
	C451.632568,424.267700 452.329987,422.645264 453.356995,421.268646 
	C458.810547,413.958679 464.346741,406.710358 470.118011,399.251587 
	C476.294250,388.722015 482.206818,378.381561 488.448853,367.886597 
	C491.683014,360.824280 495.025116,354.062103 497.386536,346.973297 
	C500.660004,337.146545 503.196533,327.074371 506.408722,316.918182 
	C508.185059,307.968140 509.568970,299.201599 511.090454,290.458954 
	C511.191345,289.879425 512.339172,289.482086 513.000000,289.000000 
z"/>
<path fill="#000000" opacity="1.000000" stroke="none" 
	d="
M225.000000,513.000000 
	C150.406296,513.000000 75.812599,513.000000 1.000000,513.000000 
	C1.000000,438.645905 1.000000,364.291626 1.366384,289.163147 
	C2.488481,292.308319 3.106560,296.260284 4.027322,300.140472 
	C6.238801,309.459869 8.592308,318.745514 10.939182,328.451233 
	C15.715408,341.571259 20.440960,354.284851 25.184971,367.357788 
	C31.524469,378.477570 37.845512,389.238007 44.175838,400.346039 
	C44.788994,401.456024 45.388927,402.221588 45.997345,402.980286 
	C52.983753,411.692719 59.971478,420.404114 67.078079,429.426025 
	C74.115143,436.526550 81.032959,443.316803 88.088097,450.423370 
	C88.934509,451.110535 89.699814,451.402832 90.344376,451.863953 
	C102.555115,460.599609 114.751610,469.355194 127.099701,478.432526 
	C135.439819,482.833160 143.533310,487.121033 151.841660,490.941650 
	C174.509094,501.365326 198.185120,508.317017 223.043137,511.076294 
	C223.757797,511.155670 224.350449,512.334045 225.000000,513.000000 
z"/>
<path fill="#000000" opacity="1.000000" stroke="none" 
	d="
M1.000001,224.000000 
	C1.000000,149.739456 1.000000,75.478920 1.000000,1.000000 
	C75.354088,1.000000 149.708389,1.000000 224.837326,1.365690 
	C224.772873,2.152658 223.970016,2.827777 223.088745,2.953591 
	C217.780823,3.711357 212.368591,3.947535 207.150101,5.086138 
	C185.306290,9.852148 163.915558,16.208717 144.053589,26.625336 
	C133.021164,32.411304 122.633598,39.426891 111.633522,45.940422 
	C110.526459,46.624275 109.741264,47.255981 108.606186,47.940018 
	C106.468079,49.312366 104.679871,50.632385 102.572830,52.077415 
	C90.466454,63.119015 78.678917,74.035606 66.575073,85.075043 
	C54.889706,98.211250 44.445042,111.896767 35.566704,127.106552 
	C34.455513,129.001099 33.830708,130.842407 32.860863,132.479309 
	C22.557072,149.870270 15.099684,168.416321 9.993768,188.357605 
	C7.547170,199.663406 5.307092,210.617233 2.937130,221.542892 
	C2.738434,222.458893 1.666327,223.185440 1.000001,224.000000 
z"/>
<path fill="#FFDBFC" opacity="1.000000" stroke="none" 
	d="
M1.000001,224.468658 
	C1.666327,223.185440 2.738434,222.458893 2.937130,221.542892 
	C5.307092,210.617233 7.547170,199.663406 10.451851,188.358154 
	C60.022289,187.991180 108.962143,187.983017 157.806107,188.252335 
	C157.121399,189.309250 156.532578,190.088684 155.648117,191.033966 
	C153.876831,193.423462 152.401199,195.647141 150.647369,198.064056 
	C149.538986,200.109497 148.708801,201.961685 147.621307,204.053131 
	C146.307037,207.194061 145.250061,210.095764 143.988510,213.326447 
	C142.800034,216.681671 141.816132,219.707886 140.442932,222.783142 
	C131.211197,224.715057 123.861092,229.103836 117.693268,236.140854 
	C114.312454,241.203873 111.226471,246.098984 108.081299,251.394028 
	C107.406479,255.859970 106.790848,259.925964 106.108917,264.363586 
	C105.983002,265.487061 105.923378,266.238892 105.403656,266.993713 
	C70.295700,266.997803 35.647850,266.998901 1.000000,267.000000 
	C1.000000,252.979111 1.000000,238.958206 1.000001,224.468658 
z"/>
<path fill="#FFEEFF" opacity="1.000000" stroke="none" 
	d="
M111.955391,45.888283 
	C122.633598,39.426891 133.021164,32.411304 144.053589,26.625336 
	C163.915558,16.208717 185.306290,9.852148 207.150101,5.086138 
	C212.368591,3.947535 217.780823,3.711357 223.088745,2.953591 
	C223.970016,2.827777 224.772873,2.152658 225.305984,1.365690 
	C246.020889,1.000000 267.041779,1.000000 288.531342,0.999999 
	C289.483276,1.660537 289.922577,2.860142 290.456177,2.903672 
	C309.404816,4.449428 327.523895,9.577697 345.238220,16.065083 
	C365.436768,23.462244 384.698090,32.828953 402.120331,46.286716 
	C399.478546,51.564281 395.227386,48.909245 391.761475,48.915085 
	C323.959778,49.029381 256.157806,49.000008 188.355896,49.000000 
	C164.866791,48.999996 141.377609,48.976059 117.888649,49.033089 
	C115.234596,49.039528 112.840424,49.008987 111.955391,45.888283 
z"/>
<path fill="#FFD5FC" opacity="1.000000" stroke="none" 
	d="
M513.000000,288.531342 
	C512.339172,289.482086 511.191345,289.879425 511.090454,290.458954 
	C509.568970,299.201599 508.185059,307.968140 506.120911,316.607208 
	C503.502563,316.323547 501.532166,316.020935 499.561646,316.020294 
	C421.737183,315.994080 343.912720,315.995331 266.051727,315.576172 
	C266.013306,313.762421 266.011444,312.365448 266.001892,310.742371 
	C265.994263,310.516205 265.980133,310.063812 266.450623,310.064728 
	C299.156982,310.063995 331.392853,310.072510 363.628693,310.056427 
	C379.602295,310.048431 391.857758,303.122528 400.955505,289.681335 
	C402.773254,285.586487 404.375854,281.793182 406.067078,277.630249 
	C406.680267,274.838745 407.204865,272.416870 407.809631,269.562195 
	C407.599396,266.411346 407.308960,263.693329 407.011475,260.557739 
	C406.095490,256.728149 405.186615,253.316132 404.218475,249.539642 
	C402.478882,246.395691 400.798553,243.616241 399.081055,240.495239 
	C398.308167,238.788330 397.572479,237.422958 397.269592,236.049591 
	C400.990662,236.361069 404.278381,236.951981 407.567261,236.958252 
	C442.711395,237.025406 477.855713,237.000000 513.000000,237.000000 
	C513.000000,254.020889 513.000000,271.041779 513.000000,288.531342 
z"/>
<path fill="#FFD3FB" opacity="1.000000" stroke="none" 
	d="
M1.000000,267.468567 
	C35.647850,266.998901 70.295700,266.997803 105.466003,267.419586 
	C106.039642,269.559998 106.090843,271.277527 106.225349,273.349915 
	C107.270485,276.467957 108.232315,279.231079 109.271751,282.328491 
	C111.503593,286.129944 113.657829,289.597137 115.900757,293.397644 
	C124.228180,303.692444 134.683258,309.820007 147.691406,309.933960 
	C181.131653,310.226898 214.576004,310.047302 248.013290,310.286987 
	C248.007858,310.517456 247.993561,310.978210 248.001480,311.447144 
	C247.980698,316.942627 247.952011,321.969238 247.459457,326.997192 
	C170.727585,326.999054 94.459549,326.989868 18.191561,327.043915 
	C15.756975,327.045624 13.322848,327.696533 10.888508,328.044800 
	C8.592308,318.745514 6.238801,309.459869 4.027322,300.140472 
	C3.106560,296.260284 2.488481,292.308319 1.366384,288.694489 
	C1.000000,281.979034 1.000000,274.958099 1.000000,267.468567 
z"/>
<path fill="#FFDEFD" opacity="1.000000" stroke="none" 
	d="
M513.000000,236.539368 
	C477.855713,237.000000 442.711395,237.025406 407.567261,236.958252 
	C404.278381,236.951981 400.990662,236.361069 396.990936,235.892395 
	C394.276825,234.113968 392.274170,232.484756 390.034912,230.592972 
	C383.570374,227.536880 377.342438,224.743347 371.234253,221.581680 
	C371.517548,219.141083 371.681183,217.068634 371.901611,214.555191 
	C371.927887,211.741516 371.897369,209.368805 371.927307,206.602295 
	C371.617981,204.137985 371.248199,202.067505 370.945587,199.615997 
	C370.380646,197.147308 369.748535,195.059647 369.072754,192.569443 
	C367.712341,188.071304 366.395599,183.975723 365.036011,179.532776 
	C363.665741,176.784180 362.338318,174.382935 360.957703,171.708649 
	C360.641541,170.948227 360.378571,170.460861 360.542725,169.980988 
	C369.917999,170.325668 378.865143,170.921249 387.814362,170.953659 
	C420.284149,171.071228 452.754974,171.072220 485.224365,170.911453 
	C489.430389,170.890625 493.630493,169.666199 497.833344,168.999298 
	C501.555542,182.227737 505.410614,195.420929 508.936401,208.701523 
	C510.407532,214.242966 511.178223,219.970337 512.633667,225.306580 
	C513.000000,228.692902 513.000000,232.385818 513.000000,236.539368 
z"/>
<path fill="#FFC0F9" opacity="1.000000" stroke="none" 
	d="
M225.468658,513.000000 
	C224.350449,512.334045 223.757797,511.155670 223.043137,511.076294 
	C198.185120,508.317017 174.509094,501.365326 151.841660,490.941650 
	C143.533310,487.121033 135.439819,482.833160 127.387665,478.121674 
	C129.496078,477.323273 131.465103,477.020935 133.434235,477.020294 
	C207.539597,476.996246 281.644958,477.000000 355.750336,477.000000 
	C364.076782,477.000000 372.405579,476.899719 380.727448,477.095337 
	C382.180603,477.129517 383.604462,478.409515 385.041870,479.114136 
	C361.660675,493.373230 336.333099,502.574432 309.573486,507.964172 
	C303.236145,509.240631 296.792816,509.985931 290.412384,511.059723 
	C289.690582,511.181152 289.061066,511.850952 288.694397,512.633240 
	C267.979095,513.000000 246.958206,513.000000 225.468658,513.000000 
z"/>
<path fill="#FFE2FD" opacity="1.000000" stroke="none" 
	d="
M497.910400,168.621887 
	C493.630493,169.666199 489.430389,170.890625 485.224365,170.911453 
	C452.754974,171.072220 420.284149,171.071228 387.814362,170.953659 
	C378.865143,170.921249 369.917999,170.325668 360.236145,169.840027 
	C358.019623,167.759811 356.536835,165.828064 354.908844,163.596558 
	C351.233337,159.838852 347.703003,156.380936 344.006348,152.623169 
	C316.168030,126.743294 269.511322,126.078308 240.627502,152.020142 
	C236.782822,156.063599 233.238617,159.957123 229.424561,164.042099 
	C227.288177,166.736221 225.421646,169.238907 223.500717,171.814514 
	C210.279160,168.054367 197.072891,167.433228 183.494568,171.743103 
	C178.403595,174.177277 173.681183,176.526154 168.647461,179.016357 
	C164.858093,182.096741 161.380051,185.035797 157.901993,187.974854 
	C108.962143,187.983017 60.022289,187.991180 10.624352,187.998795 
	C15.099684,168.416321 22.557072,149.870270 32.860863,132.479309 
	C33.830708,130.842407 34.455513,129.001099 36.041946,127.118790 
	C181.496918,126.988594 326.150452,126.998734 470.803986,126.956619 
	C472.907166,126.956009 475.010132,126.303780 477.113220,125.955673 
	C483.407867,138.443619 489.714722,150.925415 495.981598,163.427292 
	C496.759125,164.978424 497.324036,166.636154 497.910400,168.621887 
z"/>
<path fill="#FFE7FE" opacity="1.000000" stroke="none" 
	d="
M477.058594,125.592773 
	C475.010132,126.303780 472.907166,126.956009 470.803986,126.956619 
	C326.150452,126.998734 181.496918,126.988594 36.368141,126.970657 
	C44.445042,111.896767 54.889706,98.211250 66.934158,85.233856 
	C70.152161,85.846550 72.694412,86.926102 75.237404,86.927818 
	C197.427963,87.010468 319.618561,87.005226 441.809143,86.956543 
	C443.909973,86.955704 446.010529,86.303780 448.111206,85.955666 
	C459.064636,98.074150 468.865692,111.040367 477.058594,125.592773 
z"/>
<path fill="#FFEAFE" opacity="1.000000" stroke="none" 
	d="
M447.985413,85.641518 
	C446.010529,86.303780 443.909973,86.955704 441.809143,86.956543 
	C319.618561,87.005226 197.427963,87.010468 75.237404,86.927818 
	C72.694412,86.926102 70.152161,85.846550 67.250473,85.111008 
	C78.678917,74.035606 90.466454,63.119015 102.928040,52.230347 
	C105.413696,52.251614 107.225288,52.244957 109.036896,52.238300 
	C109.009956,50.788097 108.983017,49.337891 108.956070,47.887688 
	C109.741264,47.255981 110.526459,46.624275 111.633522,45.940426 
	C112.840424,49.008987 115.234596,49.039528 117.888649,49.033089 
	C141.377609,48.976059 164.866791,48.999996 188.355896,49.000000 
	C256.157806,49.000008 323.959778,49.029381 391.761475,48.915085 
	C395.227386,48.909245 399.478546,51.564281 402.336060,46.534927 
	C403.290741,46.529713 404.044952,46.892521 404.910583,47.966171 
	C404.957489,51.970364 406.109100,53.050907 409.043701,50.887283 
	C414.700806,55.277657 420.639709,59.354992 425.947449,64.133392 
	C433.494720,70.927910 440.578064,78.237717 447.985413,85.641518 
z"/>
<path fill="#FFEEFF" opacity="1.000000" stroke="none" 
	d="
M408.924866,50.576778 
	C406.109100,53.050907 404.957489,51.970364 405.031830,48.281105 
	C406.296448,48.678890 407.551239,49.472580 408.924866,50.576778 
z"/>
<path fill="#FFCBFA" opacity="1.000000" stroke="none" 
	d="
M44.166557,399.998413 
	C37.845512,389.238007 31.524469,378.477570 25.643028,367.358337 
	C100.030937,366.998260 173.979248,366.997009 247.957458,367.440491 
	C248.003174,369.697723 247.907364,371.519592 248.057999,373.320831 
	C248.371506,377.069458 250.193298,379.655670 253.833481,381.099731 
	C257.466705,382.541077 260.084381,381.047821 262.743042,378.872101 
	C266.672638,375.656311 265.893829,371.212311 266.536560,366.997162 
	C335.757629,366.999023 404.514587,366.978088 473.271484,367.044800 
	C478.221069,367.049622 483.170105,367.694092 488.119385,368.041107 
	C482.206818,378.381561 476.294250,388.722015 469.602051,399.133484 
	C466.993225,399.136353 465.164032,399.008606 463.334808,399.008484 
	C326.062439,398.999176 188.790054,398.994812 51.517685,399.041565 
	C49.067200,399.042389 46.616928,399.665588 44.166557,399.998413 
z"/>
<path fill="#FFCEFB" opacity="1.000000" stroke="none" 
	d="
M488.448853,367.886597 
	C483.170105,367.694092 478.221069,367.049622 473.271484,367.044800 
	C404.514587,366.978088 335.757629,366.999023 266.508667,366.580139 
	C265.970459,364.770050 265.924286,363.378387 265.915649,361.520508 
	C265.919159,353.363129 265.885101,345.672028 265.889771,337.515137 
	C265.981750,330.030548 266.035004,323.011780 266.088257,315.992981 
	C343.912720,315.995331 421.737183,315.994080 499.561646,316.020294 
	C501.532166,316.020935 503.502563,316.323547 505.760803,316.796295 
	C503.196533,327.074371 500.660004,337.146545 497.386536,346.973297 
	C495.025116,354.062103 491.683014,360.824280 488.448853,367.886597 
z"/>
<path fill="#FFC8FA" opacity="1.000000" stroke="none" 
	d="
M44.175842,400.346039 
	C46.616928,399.665588 49.067200,399.042389 51.517685,399.041565 
	C188.790054,398.994812 326.062439,398.999176 463.334808,399.008484 
	C465.164032,399.008606 466.993225,399.136353 469.338379,399.322601 
	C464.346741,406.710358 458.810547,413.958679 453.356995,421.268646 
	C452.329987,422.645264 451.632568,424.267700 450.008667,425.900391 
	C444.779388,426.349365 440.325012,426.950134 435.869629,426.957306 
	C392.060730,427.027985 348.251678,427.000000 304.442688,427.000000 
	C227.485428,427.000000 150.528137,426.982452 73.571030,427.088745 
	C71.366035,427.091797 69.162857,428.410522 66.958832,429.115784 
	C59.971478,420.404114 52.983753,411.692719 45.997345,402.980286 
	C45.388927,402.221588 44.788994,401.456024 44.175842,400.346039 
z"/>
<path fill="#FFC3FA" opacity="1.000000" stroke="none" 
	d="
M385.406616,479.065063 
	C383.604462,478.409515 382.180603,477.129517 380.727448,477.095337 
	C372.405579,476.899719 364.076782,477.000000 355.750336,477.000000 
	C281.644958,477.000000 207.539597,476.996246 133.434235,477.020294 
	C131.465103,477.020935 129.496078,477.323273 127.239044,477.795776 
	C114.751610,469.355194 102.555115,460.599609 90.344376,451.863953 
	C89.699814,451.402832 88.934509,451.110535 88.376022,450.112427 
	C90.661568,449.323486 92.796471,449.020691 94.931442,449.020233 
	C201.478363,448.997162 308.025299,449.008942 414.572235,448.968781 
	C419.027679,448.967102 423.482971,448.507355 427.938324,448.261047 
	C415.378265,457.606476 402.827454,466.964386 390.245178,476.279816 
	C388.845703,477.315887 387.266968,478.109802 385.406616,479.065063 
z"/>
<path fill="#FFC6FA" opacity="1.000000" stroke="none" 
	d="
M428.161011,448.159363 
	C423.482971,448.507355 419.027679,448.967102 414.572235,448.968781 
	C308.025299,449.008942 201.478363,448.997162 94.931442,449.020233 
	C92.796471,449.020691 90.661568,449.323486 88.238708,449.796143 
	C81.032959,443.316803 74.115143,436.526550 67.078079,429.426025 
	C69.162857,428.410522 71.366035,427.091797 73.571030,427.088745 
	C150.528137,426.982452 227.485428,427.000000 304.442688,427.000000 
	C348.251678,427.000000 392.060730,427.027985 435.869629,426.957306 
	C440.325012,426.950134 444.779388,426.349365 449.681824,426.041443 
	C442.880829,433.391754 435.632263,440.724731 428.161011,448.159363 
z"/>
<path fill="#FFCEFB" opacity="1.000000" stroke="none" 
	d="
M247.927551,366.995789 
	C173.979248,366.997009 100.030937,366.998260 25.624573,366.998962 
	C20.440960,354.284851 15.715408,341.571259 10.939182,328.451233 
	C13.322848,327.696533 15.756975,327.045624 18.191561,327.043915 
	C94.459549,326.989868 170.727585,326.999054 247.498047,327.454254 
	C248.049957,331.266937 248.099457,334.623901 248.098145,338.449463 
	C248.072189,346.607574 248.097031,354.297150 248.084595,362.402954 
	C248.007401,364.211365 247.967468,365.603577 247.927551,366.995789 
z"/>
<path fill="#FFEEFF" opacity="1.000000" stroke="none" 
	d="
M108.606186,47.940018 
	C108.983017,49.337891 109.009956,50.788097 109.036896,52.238300 
	C107.225288,52.244957 105.413696,52.251614 103.246880,52.105331 
	C104.679871,50.632385 106.468079,49.312366 108.606186,47.940018 
z"/>
<path fill="#BD4AFF" opacity="1.000000" stroke="none" 
	d="
M157.806107,188.252335 
	C161.380051,185.035797 164.858093,182.096741 168.742767,179.421722 
	C170.797180,180.123962 172.444580,180.943558 174.092834,180.945297 
	C236.043304,181.010559 297.993866,181.009445 359.944366,180.953552 
	C361.656189,180.952011 363.367371,180.253601 365.078857,179.880127 
	C366.395599,183.975723 367.712341,188.071304 368.594421,192.578278 
	C319.181213,192.993088 270.202667,192.996933 221.224152,192.999802 
	C201.232910,193.000977 181.241272,193.053696 161.251099,192.907379 
	C159.477112,192.894379 157.712646,191.578751 155.943771,190.868134 
	C156.532578,190.088684 157.121399,189.309250 157.806107,188.252335 
z"/>
<path fill="#D45DFF" opacity="1.000000" stroke="none" 
	d="
M106.175217,263.992004 
	C106.790848,259.925964 107.406479,255.859970 108.537590,251.396057 
	C143.402924,250.989990 177.752777,250.981827 212.408478,251.118011 
	C218.410553,258.567017 223.104523,258.905548 229.783295,252.512238 
	C230.730072,251.605911 231.738861,250.764374 233.156189,249.967743 
	C238.359711,250.360367 243.126007,250.678085 247.944321,251.458160 
	C247.962906,256.278809 247.929489,260.637115 247.433929,264.996765 
	C200.039581,264.662750 153.107407,264.327362 106.175217,263.992004 
z"/>
<path fill="#BF4CFF" opacity="1.000000" stroke="none" 
	d="
M155.648117,191.033966 
	C157.712646,191.578751 159.477112,192.894379 161.251099,192.907379 
	C181.241272,193.053696 201.232910,193.000977 221.224152,192.999802 
	C270.202667,192.996933 319.181213,192.993088 368.638062,192.980804 
	C369.748535,195.059647 370.380646,197.147308 370.487000,199.617004 
	C299.154877,199.999344 228.348511,200.018875 157.542343,199.910538 
	C155.335709,199.907166 153.131119,198.580551 150.925568,197.870819 
	C152.401199,195.647141 153.876831,193.423462 155.648117,191.033966 
z"/>
<path fill="#C14EFF" opacity="1.000000" stroke="none" 
	d="
M150.647369,198.064056 
	C153.131119,198.580551 155.335709,199.907166 157.542343,199.910538 
	C228.348511,200.018875 299.154877,199.999344 370.419800,199.998016 
	C371.248199,202.067505 371.617981,204.137985 371.469604,206.603638 
	C338.417358,206.999191 305.883179,206.975555 273.349213,207.042969 
	C270.573212,207.048721 267.798431,207.660690 264.694519,207.866318 
	C259.207611,202.940155 256.748138,202.617264 250.380676,205.976349 
	C218.335754,205.991302 186.749100,206.043655 155.163269,205.905548 
	C152.732040,205.894928 150.306702,204.542587 147.878616,203.813889 
	C148.708801,201.961685 149.538986,200.109497 150.647369,198.064056 
z"/>
<path fill="#CB56FF" opacity="1.000000" stroke="none" 
	d="
M117.988098,235.972931 
	C123.861092,229.103836 131.211197,224.715057 140.698975,223.106903 
	C144.078445,223.921036 146.810806,224.918396 149.546982,224.928955 
	C176.985336,225.034897 204.424347,224.978668 231.738190,225.269714 
	C226.774628,230.058289 221.936050,234.545258 216.668579,239.012955 
	C213.133133,238.662460 210.027328,238.051987 206.919891,238.043640 
	C179.056259,237.968857 151.192184,238.037170 123.328903,237.913116 
	C121.545784,237.905182 119.768234,236.648636 117.988098,235.972931 
z"/>
<path fill="#D05AFF" opacity="1.000000" stroke="none" 
	d="
M117.693268,236.140869 
	C119.768234,236.648636 121.545784,237.905182 123.328903,237.913116 
	C151.192184,238.037170 179.056259,237.968857 206.919891,238.043640 
	C210.027328,238.051987 213.133133,238.662460 216.505997,239.318527 
	C213.414795,242.677902 211.475464,246.296906 212.102631,250.973679 
	C177.752777,250.981827 143.402924,250.989990 108.596771,250.996124 
	C111.226471,246.098984 114.312454,241.203873 117.693268,236.140869 
z"/>
<path fill="#C652FF" opacity="1.000000" stroke="none" 
	d="
M231.863159,224.968109 
	C204.424347,224.978668 176.985336,225.034897 149.546982,224.928955 
	C146.810806,224.918396 144.078445,223.921036 141.088272,223.057892 
	C141.816132,219.707886 142.800034,216.681671 144.440826,213.327087 
	C175.493668,212.999176 205.889694,212.972092 236.285370,213.063309 
	C238.264175,213.069244 240.240280,213.983536 242.092316,214.760590 
	C238.599030,218.353287 235.231094,221.660690 231.863159,224.968109 
z"/>
<path fill="#D861FF" opacity="1.000000" stroke="none" 
	d="
M106.108917,264.363586 
	C153.107407,264.327362 200.039581,264.662750 247.486633,265.439026 
	C247.968369,268.252014 247.935242,270.624115 247.442566,272.997620 
	C200.036041,272.997681 153.089035,272.996368 106.142044,272.995056 
	C106.090843,271.277527 106.039642,269.559998 105.926102,267.416626 
	C105.923378,266.238892 105.983002,265.487061 106.108917,264.363586 
z"/>
<path fill="#C451FF" opacity="1.000000" stroke="none" 
	d="
M242.217651,214.475311 
	C240.240280,213.983536 238.264175,213.069244 236.285370,213.063309 
	C205.889694,212.972092 175.493668,212.999176 144.645416,212.998108 
	C145.250061,210.095764 146.307037,207.194061 147.621307,204.053131 
	C150.306702,204.542587 152.732040,205.894928 155.163269,205.905548 
	C186.749100,206.043655 218.335754,205.991302 250.252518,206.275085 
	C247.794434,209.200592 245.006042,211.837952 242.217651,214.475311 
z"/>
<path fill="#FFD8FC" opacity="1.000000" stroke="none" 
	d="
M242.092316,214.760590 
	C245.006042,211.837952 247.794434,209.200592 250.710968,206.264496 
	C256.748138,202.617264 259.207611,202.940155 264.862335,208.149338 
	C267.620667,210.689148 269.882599,212.821228 272.270081,215.255585 
	C275.522980,218.505890 278.650299,221.453934 281.894470,224.706329 
	C284.721619,227.663269 287.431885,230.315872 290.270050,233.268860 
	C293.799042,236.891891 297.200134,240.214554 300.686859,243.918823 
	C300.898895,246.198578 301.025269,248.096695 301.060028,250.341858 
	C296.413605,257.989410 291.428528,258.953217 284.992218,253.468628 
	C278.827972,247.208450 272.838226,241.223663 266.114288,234.505310 
	C266.114288,242.199249 266.114288,248.597336 266.061554,255.437225 
	C266.039795,258.251068 266.070740,260.623108 266.049438,263.430786 
	C266.028290,265.909882 266.059418,267.953430 266.044128,270.439301 
	C266.028564,273.253906 266.059479,275.626160 266.044678,278.457153 
	C266.027588,282.608673 266.056183,286.301453 266.039185,290.461090 
	C265.989105,297.306580 265.984619,303.685181 265.980133,310.063812 
	C265.980133,310.063812 265.994263,310.516205 265.532959,310.746155 
	C259.378967,310.976807 253.686264,310.977509 247.993561,310.978210 
	C247.993561,310.978210 248.007858,310.517456 248.018799,309.813721 
	C247.992126,303.738403 247.954498,298.366791 247.960297,292.538971 
	C247.972046,288.720764 247.940353,285.358765 247.955017,281.548767 
	C247.968277,278.399231 247.935196,275.697723 247.902130,272.996216 
	C247.935242,270.624115 247.968369,268.252014 247.948792,265.437683 
	C247.929489,260.637115 247.962906,256.278809 247.996155,250.994293 
	C247.995972,245.235229 247.995972,240.402405 247.995972,235.531128 
	C242.603256,240.600739 237.661102,245.246780 232.718948,249.892838 
	C231.738861,250.764374 230.730072,251.605911 229.783295,252.512238 
	C223.104523,258.905548 218.410553,258.567017 212.408478,251.118011 
	C211.475464,246.296906 213.414795,242.677902 216.934875,239.337784 
	C221.936050,234.545258 226.774628,230.058289 231.738190,225.269714 
	C235.231094,221.660690 238.599030,218.353287 242.092316,214.760590 
z"/>
<path fill="#E269FF" opacity="1.000000" stroke="none" 
	d="
M266.450623,310.064728 
	C265.984619,303.685181 265.989105,297.306580 266.499725,290.463074 
	C311.584045,289.993073 356.162201,289.987976 400.740387,289.982880 
	C391.857758,303.122528 379.602295,310.048431 363.628693,310.056427 
	C331.392853,310.072510 299.156982,310.063995 266.450623,310.064728 
z"/>
<path fill="#DD65FF" opacity="1.000000" stroke="none" 
	d="
M400.955505,289.681335 
	C356.162201,289.987976 311.584045,289.993073 266.545319,289.996216 
	C266.056183,286.301453 266.027588,282.608673 266.504852,278.457764 
	C313.333282,277.999695 359.655884,277.999786 405.978455,277.999878 
	C404.375854,281.793182 402.773254,285.586487 400.955505,289.681335 
z"/>
<path fill="#D45DFF" opacity="1.000000" stroke="none" 
	d="
M285.166718,253.744049 
	C291.428528,258.953217 296.413605,257.989410 301.515442,250.343628 
	C336.134216,249.966934 370.205963,249.935516 404.277710,249.904114 
	C405.186615,253.316132 406.095490,256.728149 406.748657,260.843567 
	C402.911163,262.031311 399.330322,262.929108 395.747467,262.937042 
	C352.532379,263.032684 309.317017,262.996796 266.101715,262.995178 
	C266.070740,260.623108 266.039795,258.251068 266.519409,255.438629 
	C269.146667,254.998642 271.274353,255.137527 273.377533,254.969482 
	C277.314758,254.654922 281.237793,254.162491 285.166718,253.744049 
z"/>
<path fill="#DB63FF" opacity="1.000000" stroke="none" 
	d="
M406.067078,277.630249 
	C359.655884,277.999786 313.333282,277.999695 266.550537,277.999023 
	C266.059479,275.626160 266.028564,273.253906 266.504333,270.440369 
	C313.917175,269.997711 360.823303,269.996368 407.729462,269.995026 
	C407.204865,272.416870 406.680267,274.838745 406.067078,277.630249 
z"/>
<path fill="#CD58FF" opacity="1.000000" stroke="none" 
	d="
M300.601196,243.537201 
	C297.200134,240.214554 293.799042,236.891891 290.680176,233.266479 
	C293.741394,232.642471 296.519745,232.048920 299.299561,232.042084 
	C327.370026,231.973022 355.440735,232.026184 383.511169,231.950485 
	C385.765594,231.944412 388.018127,231.237015 390.271545,230.855530 
	C392.274170,232.484756 394.276825,234.113968 396.558136,235.900391 
	C397.572479,237.422958 398.308167,238.788330 398.786377,240.815063 
	C396.736267,241.650940 394.943787,241.975601 393.151001,241.977570 
	C364.276001,242.009338 335.400909,241.969925 306.526184,242.066101 
	C304.549591,242.072678 302.576111,243.024811 300.601196,243.537201 
z"/>
<path fill="#D861FF" opacity="1.000000" stroke="none" 
	d="
M407.809631,269.562195 
	C360.823303,269.996368 313.917175,269.997711 266.550781,269.998016 
	C266.059418,267.953430 266.028290,265.909882 266.049438,263.430786 
	C309.317017,262.996796 352.532379,263.032684 395.747467,262.937042 
	C399.330322,262.929108 402.911163,262.031311 406.755737,261.261169 
	C407.308960,263.693329 407.599396,266.411346 407.809631,269.562195 
z"/>
<path fill="#D05AFF" opacity="1.000000" stroke="none" 
	d="
M300.686859,243.918823 
	C302.576111,243.024811 304.549591,242.072678 306.526184,242.066101 
	C335.400909,241.969925 364.276001,242.009338 393.151001,241.977570 
	C394.943787,241.975601 396.736267,241.650940 398.823547,241.156601 
	C400.798553,243.616241 402.478882,246.395691 404.218445,249.539642 
	C370.205963,249.935516 336.134216,249.966934 301.607056,249.996582 
	C301.025269,248.096695 300.898895,246.198578 300.686859,243.918823 
z"/>
<path fill="#EB71FF" opacity="1.000000" stroke="none" 
	d="
M248.001480,311.447144 
	C253.686264,310.977509 259.378967,310.976807 265.540588,310.972321 
	C266.011444,312.365448 266.013306,313.762421 266.051727,315.576172 
	C266.035004,323.011780 265.981750,330.030548 265.436951,337.521423 
	C259.346588,337.989288 253.747772,337.985077 248.148956,337.980896 
	C248.099457,334.623901 248.049957,331.266937 247.961884,327.452881 
	C247.952011,321.969238 247.980698,316.942627 248.001480,311.447144 
z"/>
<path fill="#E36AFF" opacity="1.000000" stroke="none" 
	d="
M247.916870,292.995178 
	C247.954498,298.366791 247.992126,303.738403 248.024231,309.583282 
	C214.576004,310.047302 181.131653,310.226898 147.691406,309.933960 
	C134.683258,309.820007 124.228180,303.692444 116.387680,293.376312 
	C160.496231,293.012787 204.206543,293.003967 247.916870,292.995178 
z"/>
<path fill="#DE66FF" opacity="1.000000" stroke="none" 
	d="
M247.960297,292.538971 
	C204.206543,293.003967 160.496231,293.012787 116.298988,293.042969 
	C113.657829,289.597137 111.503593,286.129944 109.721909,282.330231 
	C156.032532,281.997375 201.970596,281.997070 247.908661,281.996765 
	C247.940353,285.358765 247.972046,288.720764 247.960297,292.538971 
z"/>
<path fill="#DB63FF" opacity="1.000000" stroke="none" 
	d="
M247.955017,281.548767 
	C201.970596,281.997070 156.032532,281.997375 109.644302,281.995972 
	C108.232315,279.231079 107.270485,276.467957 106.225357,273.349915 
	C153.089035,272.996368 200.036041,272.997681 247.442581,272.997620 
	C247.935196,275.697723 247.968277,278.399231 247.955017,281.548767 
z"/>
<path fill="#B645FF" opacity="1.000000" stroke="none" 
	d="
M183.863129,171.657822 
	C197.072891,167.433228 210.279160,168.054367 223.500717,171.814514 
	C225.421646,169.238907 227.288177,166.736221 229.833221,164.220810 
	C232.291779,164.472046 234.071564,164.964310 235.851929,164.966385 
	C273.878296,165.010681 311.904755,165.014297 349.931061,164.953217 
	C351.639282,164.950470 353.346405,164.264221 355.054047,163.896332 
	C356.536835,165.828064 358.019623,167.759811 359.808990,169.832520 
	C360.378571,170.460861 360.641541,170.948227 360.759094,172.054474 
	C359.253662,173.115372 357.894165,173.942444 356.533691,173.944016 
	C300.369659,174.008759 244.205551,174.016235 188.041687,173.901367 
	C186.647308,173.898514 185.255920,172.438324 183.863129,171.657822 
z"/>
<path fill="#B947FF" opacity="1.000000" stroke="none" 
	d="
M183.494568,171.743103 
	C185.255920,172.438324 186.647308,173.898514 188.041687,173.901367 
	C244.205551,174.016235 300.369659,174.008759 356.533691,173.944016 
	C357.894165,173.942444 359.253662,173.115372 360.812256,172.327515 
	C362.338318,174.382935 363.665741,176.784180 365.036011,179.532776 
	C363.367371,180.253601 361.656189,180.952011 359.944366,180.953552 
	C297.993866,181.009445 236.043304,181.010559 174.092834,180.945297 
	C172.444580,180.943558 170.797180,180.123962 169.054077,179.280396 
	C173.681183,176.526154 178.403595,174.177277 183.494568,171.743103 
z"/>
<path fill="#CB56FF" opacity="1.000000" stroke="none" 
	d="
M390.034912,230.592957 
	C388.018127,231.237015 385.765594,231.944412 383.511169,231.950485 
	C355.440735,232.026184 327.370026,231.973022 299.299561,232.042084 
	C296.519745,232.048920 293.741394,232.642471 290.552246,232.966095 
	C287.431885,230.315872 284.721619,227.663269 282.173035,224.344177 
	C284.276306,223.451782 286.217560,223.032654 288.159546,223.029297 
	C313.551941,222.985260 338.944519,223.026535 364.336823,222.954361 
	C366.596985,222.947937 368.855347,222.299881 371.114532,221.949829 
	C377.342438,224.743347 383.570374,227.536880 390.034912,230.592957 
z"/>
<path fill="#C451FF" opacity="1.000000" stroke="none" 
	d="
M272.144501,214.953308 
	C269.882599,212.821228 267.620667,210.689148 265.190918,208.274048 
	C267.798431,207.660690 270.573212,207.048721 273.349213,207.042969 
	C305.883179,206.975555 338.417358,206.999191 371.409180,206.997452 
	C371.897369,209.368805 371.927887,211.741516 371.445618,214.556503 
	C338.003387,214.983627 305.073944,214.968475 272.144501,214.953308 
z"/>
<path fill="#C652FF" opacity="1.000000" stroke="none" 
	d="
M272.270081,215.255585 
	C305.073944,214.968475 338.003387,214.983627 371.388794,214.997482 
	C371.681183,217.068634 371.517548,219.141083 371.234253,221.581696 
	C368.855347,222.299881 366.596985,222.947937 364.336823,222.954361 
	C338.944519,223.026535 313.551941,222.985260 288.159546,223.029297 
	C286.217560,223.032654 284.276306,223.451782 282.056152,224.039825 
	C278.650299,221.453934 275.522980,218.505890 272.270081,215.255585 
z"/>
<path fill="#AE3EFF" opacity="1.000000" stroke="none" 
	d="
M240.927963,151.870209 
	C269.511322,126.078308 316.168030,126.743294 343.608978,152.794617 
	C342.254059,153.509827 341.130524,153.965378 340.006378,153.966766 
	C308.518921,154.005722 277.031311,154.028793 245.544312,153.908859 
	C244.002960,153.903000 242.466629,152.579910 240.927963,151.870209 
z"/>
<path fill="#B342FF" opacity="1.000000" stroke="none" 
	d="
M240.627502,152.020142 
	C242.466629,152.579910 244.002960,153.903000 245.544312,153.908859 
	C277.031311,154.028793 308.518921,154.005722 340.006378,153.966766 
	C341.130524,153.965378 342.254059,153.509827 343.775269,153.094482 
	C347.703003,156.380936 351.233337,159.838852 354.908844,163.596558 
	C353.346405,164.264221 351.639282,164.950470 349.931061,164.953217 
	C311.904755,165.014297 273.878296,165.010681 235.851929,164.966385 
	C234.071564,164.964310 232.291779,164.472046 230.103058,164.029358 
	C233.238617,159.957123 236.782822,156.063599 240.627502,152.020142 
z"/>
<path fill="#FB80FF" opacity="1.000000" stroke="none" 
	d="
M247.957458,367.440491 
	C247.967468,365.603577 248.007401,364.211365 248.539856,362.407349 
	C254.647644,361.992584 260.262909,361.989655 265.878113,361.986755 
	C265.924286,363.378387 265.970459,364.770050 266.044525,366.578735 
	C265.893829,371.212311 266.672638,375.656311 262.743042,378.872101 
	C260.084381,381.047821 257.466705,382.541077 253.833481,381.099731 
	C250.193298,379.655670 248.371506,377.069458 248.057999,373.320831 
	C247.907364,371.519592 248.003174,369.697723 247.957458,367.440491 
z"/>
<path fill="#F479FF" opacity="1.000000" stroke="none" 
	d="
M265.915649,361.520508 
	C260.262909,361.989655 254.647644,361.992584 248.577133,361.991119 
	C248.097031,354.297150 248.072189,346.607574 248.098145,338.449432 
	C253.747772,337.985077 259.346588,337.989288 265.398224,337.987183 
	C265.885101,345.672028 265.919159,353.363129 265.915649,361.520508 
z"/>
<path fill="#D05AFF" opacity="1.000000" stroke="none" 
	d="
M233.156174,249.967743 
	C237.661102,245.246780 242.603256,240.600739 247.995972,235.531128 
	C247.995972,240.402405 247.995972,245.235229 247.944138,250.531921 
	C243.126007,250.678085 238.359711,250.360367 233.156174,249.967743 
z"/>
<path fill="#D05AFF" opacity="1.000000" stroke="none" 
	d="
M284.992218,253.468628 
	C281.237793,254.162491 277.314758,254.654922 273.377533,254.969482 
	C271.274353,255.137527 269.146667,254.998642 266.572144,254.996857 
	C266.114288,248.597336 266.114288,242.199249 266.114288,234.505310 
	C272.838226,241.223663 278.827972,247.208450 284.992218,253.468628 
z"/>
</svg>